<svg xmlns="http://www.w3.org/2000/svg">
    <defs>
        <symbol id="arrow" viewBox="0 0 448 512">
            <path fill="currentColor" d="M257.5 445.1l-22.2 22.2c-9.4 9.4-24.6 9.4-33.9 0L7 273c-9.4-9.4-9.4-24.6 0-33.9L201.4 44.7c9.4-9.4 24.6-9.4 33.9 0l22.2 22.2c9.5 9.5 9.3 25-.4 34.3L136.6 216H424c13.3 0 24 10.7 24 24v32c0 13.3-10.7 24-24 24H136.6l120.5 114.8c9.8 9.3 10 24.8.4 34.3z" class=""></path>
        </symbol>
        <symbol id="bell" viewBox="0 0 28 28">
            <path d="M7.847 23.488C9.207 23.488 11.443 23.363 14.467 22.806 13.944 24.228 12.581 25.247 10.98 25.247 9.649 25.247 8.483 24.542 7.825 23.488L7.847 23.488ZM24.923 15.73C25.17 17.002 24.278 18.127 22.27 19.076 21.17 19.595 18.724 20.583 14.684 21.369 11.568 21.974 9.285 22.113 7.848 22.113 7.421 22.113 7.068 22.101 6.79 22.085 4.574 21.958 3.324 21.248 3.077 19.976 2.702 18.049 3.295 17.305 4.278 16.073L4.537 15.748C5.2 14.907 5.459 14.081 5.035 11.902 4.086 7.022 6.284 3.687 11.064 2.753 15.846 1.83 19.134 4.096 20.083 8.977 20.506 11.156 21.056 11.824 21.986 12.355L21.986 12.356 22.348 12.561C23.72 13.335 24.548 13.802 24.923 15.73Z"></path>
        </symbol>
        <symbol id="bolt" viewBox="0 0 320 512">
            <path d="M296 160H180.6l42.6-129.8C227.2 15 215.7 0 200 0H56C44 0 33.8 8.9 32.2 20.8l-32 240C-1.7 275.2 9.5 288 24 288h118.7L96.6 482.5c-3.6 15.2 8 29.5 23.3 29.5 8.4 0 16.4-4.4 20.8-12l176-304c9.3-15.9-2.2-36-20.7-36z" class=""></path>
        </symbol>
        <symbol id="caret" viewBox="0 0 320 512">
            <path d="M31.3 192h257.3c17.8 0 26.7 21.5 14.1 34.1L174.1 354.8c-7.8 7.8-20.5 7.8-28.3 0L17.2 226.1C4.6 213.5 13.5 192 31.3 192z" class=""></path>
        </symbol>
        <symbol id="chevron" viewBox="0 0 256 512">
            <path d="M24.707 38.101L4.908 57.899c-4.686 4.686-4.686 12.284 0 16.971L185.607 256 4.908 437.13c-4.686 4.686-4.686 12.284 0 16.971L24.707 473.9c4.686 4.686 12.284 4.686 16.971 0l209.414-209.414c4.686-4.686 4.686-12.284 0-16.971L41.678 38.101c-4.687-4.687-12.285-4.687-16.971 0z" class=""></path>
        </symbol>
        <symbol id="cog" viewBox="0 0 512 512">
            <path d="M487.4 315.7l-42.6-24.6c4.3-23.2 4.3-47 0-70.2l42.6-24.6c4.9-2.8 7.1-8.6 5.5-14-11.1-35.6-30-67.8-54.7-94.6-3.8-4.1-10-5.1-14.8-2.3L380.8 110c-17.9-15.4-38.5-27.3-60.8-35.1V25.8c0-5.6-3.9-10.5-9.4-11.7-36.7-8.2-74.3-7.8-109.2 0-5.5 1.2-9.4 6.1-9.4 11.7V75c-22.2 7.9-42.8 19.8-60.8 35.1L88.7 85.5c-4.9-2.8-11-1.9-14.8 2.3-24.7 26.7-43.6 58.9-54.7 94.6-1.7 5.4.6 11.2 5.5 14L67.3 221c-4.3 23.2-4.3 47 0 70.2l-42.6 24.6c-4.9 2.8-7.1 8.6-5.5 14 11.1 35.6 30 67.8 54.7 94.6 3.8 4.1 10 5.1 14.8 2.3l42.6-24.6c17.9 15.4 38.5 27.3 60.8 35.1v49.2c0 5.6 3.9 10.5 9.4 11.7 36.7 8.2 74.3 7.8 109.2 0 5.5-1.2 9.4-6.1 9.4-11.7v-49.2c22.2-7.9 42.8-19.8 60.8-35.1l42.6 24.6c4.9 2.8 11 1.9 14.8-2.3 24.7-26.7 43.6-58.9 54.7-94.6 1.5-5.5-.7-11.3-5.6-14.1zM256 336c-44.1 0-80-35.9-80-80s35.9-80 80-80 80 35.9 80 80-35.9 80-80 80z" class=""></path>
        </symbol>
        <symbol id="messenger" viewBox="0 0 28 28">
            <path d="M14 2.042c6.76 0 12 4.952 12 11.64S20.76 25.322 14 25.322a13.091 13.091 0 0 1-3.474-.461.956 .956 0 0 0-.641.047L7.5 25.959a.961.961 0 0 1-1.348-.849l-.065-2.134a.957.957 0 0 0-.322-.684A11.389 11.389 0 0 1 2 13.682C2 6.994 7.24 2.042 14 2.042ZM6.794 17.086a.57.57 0 0 0 .827.758l3.786-2.874a.722.722 0 0 1 .868 0l2.8 2.1a1.8 1.8 0 0 0 2.6-.481l3.525-5.592a.57.57 0 0 0-.827-.758l-3.786 2.874a.722.722 0 0 1-.868 0l-2.8-2.1a1.8 1.8 0 0 0-2.6.481Z"></path>
        </symbol>
        <symbol id="plus" viewBox="0 0 448 512">
            <path d="M416 208H272V64c0-17.67-14.33-32-32-32h-32c-17.67 0-32 14.33-32 32v144H32c-17.67 0-32 14.33-32 32v32c0 17.67 14.33 32 32 32h144v144c0 17.67 14.33 32 32 32h32c17.67 0 32-14.33 32-32V304h144c17.67 0 32-14.33 32-32v-32c0-17.67-14.33-32-32-32z" class=""></path>
        </symbol>
        <symbol id="groups" viewBox="0 0 28 28">
            <path d="M25.5 14C25.5 7.649 20.351 2.5 14 2.5 7.649 2.5 2.5 7.649 2.5 14 2.5 20.351 7.649 25.5 14 25.5 20.351 25.5 25.5 20.351 25.5 14ZM27 14C27 21.18 21.18 27 14 27 6.82 27 1 21.18 1 14 1 6.82 6.82 1 14 1 21.18 1 27 6.82 27 14ZM7.479 14 7.631 14C7.933 14 8.102 14.338 7.934 14.591 7.334 15.491 6.983 16.568 6.983 17.724L6.983 18.221C6.983 18.342 6.99 18.461 7.004 18.578 7.03 18.802 6.862 19 6.637 19L6.123 19C5.228 19 4.5 18.25 4.5 17.327 4.5 15.492 5.727 14 7.479 14ZM20.521 14C22.274 14 23.5 15.492 23.5 17.327 23.5 18.25 22.772 19 21.878 19L21.364 19C21.139 19 20.97 18.802 20.997 18.578 21.01 18.461 21.017 18.342 21.017 18.221L21.017 17.724C21.017 16.568 20.667 15.491 20.067 14.591 19.899 14.338 20.067 14 20.369 14L20.521 14ZM8.25 13C7.147 13 6.25 11.991 6.25 10.75 6.25 9.384 7.035 8.5 8.25 8.5 9.465 8.5 10.25 9.384 10.25 10.75 10.25 11.991 9.353 13 8.25 13ZM19.75 13C18.647 13 17.75 11.991 17.75 10.75 17.75 9.384 18.535 8.5 19.75 8.5 20.965 8.5 21.75 9.384 21.75 10.75 21.75 11.991 20.853 13 19.75 13ZM15.172 13.5C17.558 13.5 19.5 15.395 19.5 17.724L19.5 18.221C19.5 19.202 18.683 20 17.677 20L10.323 20C9.317 20 8.5 19.202 8.5 18.221L8.5 17.724C8.5 15.395 10.441 13.5 12.828 13.5L15.172 13.5ZM16.75 9C16.75 10.655 15.517 12 14 12 12.484 12 11.25 10.655 11.25 9 11.25 7.15 12.304 6 14 6 15.697 6 16.75 7.15 16.75 9Z"></path>
        </symbol>
        <symbol id="moon" viewBox="0 0 312.812 312.812">
            <path d="M305.2,178.159c-3.2-0.8-6.4,0-9.2,2c-10.4,8.8-22.4,16-35.6,20.8c-12.4,4.8-26,7.2-40.4,7.2c-32.4,0-62-13.2-83.2-34.4
			c-21.2-21.2-34.4-50.8-34.4-83.2c0-13.6,2.4-26.8,6.4-38.8c4.4-12.8,10.8-24.4,19.2-34.4c3.6-4.4,2.8-10.8-1.6-14.4
			c-2.8-2-6-2.8-9.2-2c-34,9.2-63.6,29.6-84.8,56.8c-20.4,26.8-32.4,60-32.4,96c0,43.6,17.6,83.2,46.4,112s68,46.4,112,46.4
			c36.8,0,70.8-12.8,98-34c27.6-21.6,47.6-52.4,56-87.6C314,184.959,310.8,179.359,305.2,178.159z"/>
        </symbol>
        <symbol id="sun" viewBox="0 0 466 466">
            <path d="m361.394531 233c0 70.910156-57.484375 128.394531-128.394531 128.394531s-128.394531-57.484375-128.394531-128.394531 57.484375-128.394531 128.394531-128.394531 128.394531 57.484375 128.394531 128.394531zm0 0"/><path d="m225 8v51c0 4.417969 3.582031 8 8 8s8-3.582031 8-8v-51c0-4.417969-3.582031-8-8-8s-8 3.582031-8 8zm0 0"/><path d="m233 399c-4.417969 0-8 3.582031-8 8v51c0 4.417969 3.582031 8 8 8s8-3.582031 8-8v-51c0-4.417969-3.582031-8-8-8zm0 0"/><path d="m458 225h-51c-4.417969 0-8 3.582031-8 8s3.582031 8 8 8h51c4.417969 0 8-3.582031 8-8s-3.582031-8-8-8zm0 0"/><path d="m59 225h-51c-4.417969 0-8 3.582031-8 8s3.582031 8 8 8h51c4.417969 0 8-3.582031 8-8s-3.582031-8-8-8zm0 0"/><path d="m356.1875 117.8125c2.121094.003906 4.160156-.839844 5.65625-2.34375l35.472656-35.46875c3.128906-3.125 3.128906-8.191406 0-11.316406-3.125-3.128906-8.191406-3.128906-11.316406 0l-35.472656 35.472656c-2.289063 2.285156-2.972656 5.726562-1.734375 8.71875 1.238281 2.988281 4.15625 4.9375 7.390625 4.9375zm0 0"/><path d="m104.15625 350.53125-35.472656 35.46875c-3.128906 3.125-3.128906 8.191406 0 11.316406 3.125 3.128906 8.191406 3.128906 11.316406 0l35.472656-35.472656c3.125-3.121094 3.125-8.1875 0-11.3125s-8.1875-3.125-11.3125 0zm0 0"/><path d="m361.84375 350.53125c-3.121094-3.125-8.1875-3.125-11.3125 0s-3.125 8.191406 0 11.3125l35.46875 35.472656c3.125 3.128906 8.191406 3.128906 11.316406 0 3.128906-3.125 3.128906-8.191406 0-11.316406zm0 0"/><path d="m68.683594 68.683594c-3.125 3.121094-3.125 8.1875 0 11.3125l35.472656 35.472656c3.121094 3.125 8.1875 3.125 11.3125 0s3.125-8.191406 0-11.3125l-35.46875-35.472656c-3.125-3.128906-8.191406-3.128906-11.316406 0zm0 0"/>
        </symbol>
    </defs>
</svg>